<svg width="1320" height="800" fill="none" xmlns="http://www.w3.org/2000/svg"><g filter="url(#a)" stroke="#7C397A"><path d="M376.969 622.112C44.191 432.001 198.63 234.836 570.839 99.84L762.13 84.6c55.223-7.26 205.728 16.048 365.97 167.368 228.06 192.952 65.36 295.998-109.09 394.404-174.443 98.406-309.264 165.852-642.041-24.26z"/><path d="M362.306 611.569C40.184 416.656 198.666 227.971 569.905 105.962l189.088-9.752c54.677-5.614 202.337 21.24 355.557 173.562 218.79 194.871 55.13 291.275-119.971 382.825-175.097 91.55-310.151 153.886-632.273-41.028z"/><path d="M348.703 600.685C37.333 401.447 199.5 221.227 569.282 111.921l186.693-4.448c54.073-4.018 198.776 26.209 345.005 179.261 209.52 196.416 45.15 286.271-130.334 371.072-175.482 84.801-310.571 142.117-621.943-57.121z"/><path d="M336.172 589.501C35.628 386.414 201.126 214.631 568.976 117.732l184.114.666c53.412-2.475 195.053 30.954 334.32 184.466 200.26 197.595 35.45 281-140.157 359.168-175.604 78.167-310.537 130.557-611.081-72.531z"/><path d="M324.721 578.061c-289.66-206.465-121.185-369.852 244.27-454.655l181.361 5.588c52.697-.986 191.178 35.47 323.528 189.179 191.03 198.411 26.03 275.475-149.441 347.133-175.47 71.657-310.057 119.221-599.718-87.245z"/><path d="M314.359 566.409C35.62 357.032 206.721 201.989 569.332 128.959l178.44 10.312c51.931.448 187.163 39.757 312.638 193.403 181.87 198.87 16.91 269.709-158.17 334.988-175.085 65.279-309.142 108.124-587.881-101.253z"/><path d="M305.092 554.586C37.292 342.76 210.67 195.995 570.004 134.403l175.36 14.836c51.116 1.826 183.015 43.81 301.686 197.14 172.75 198.98 8.1 263.717-166.356 322.756-174.454 59.039-307.802 97.277-575.602-114.549z"/><path d="M296.925 542.635C40.063 328.816 215.374 190.252 571.01 139.753l172.131 19.155c50.254 3.146 178.745 47.63 290.679 200.395 163.72 198.748-.4 257.514-173.985 310.458-173.585 52.945-306.049 86.692-562.91-127.126z"/><path d="M289.859 530.598c-245.943-215.361-69.04-345.812 282.495-385.577l168.76 23.269c49.347 4.408 174.363 51.213 279.646 203.171 154.77 198.181-8.58 251.113-181.064 298.116-172.482 47.003-303.894 76.381-549.837-138.979z"/><path d="M283.897 518.517C48.835 302.058 226.992 179.619 574.038 150.221l165.256 27.174c48.4 5.61 169.879 54.56 268.596 205.475 145.94 197.287-16.427 244.529-187.581 285.75-171.154 41.22-301.349 66.356-536.412-150.103z"/><path d="M279.039 506.434c-224.24-217.12-45.158-331.659 297.025-351.067l161.63 30.868c47.412 6.753 165.301 57.669 257.564 207.313 137.212 196.073-23.945 237.776-193.552 273.38-169.608 35.604-298.428 56.627-522.667-160.494z"/><path d="M275.281 494.39c-213.49-217.354-33.812-324.113 303.153-333.917l157.888 34.348c46.388 7.835 160.644 60.541 246.561 208.691C1111.5 598.06 951.764 634.382 783.915 664.54c-167.85 30.158-295.143 47.204-508.634-170.15z"/><path d="M272.621 482.425C69.786 265.258 249.742 166.144 581.149 165.551l154.042 37.615c45.329 8.855 155.912 63.175 235.605 209.615 120.164 192.724-37.945 223.826-203.833 248.716-165.888 24.889-291.507 38.096-494.342-179.072z"/><path d="M271.053 470.58C78.764 254.01 258.682 162.399 584.21 170.615l150.098 40.667c44.24 9.814 151.12 65.572 224.717 210.095 111.875 190.606-44.417 216.657-208.147 236.46-163.73 19.803-287.536 29.314-479.825-187.257z"/><path d="M270.571 458.894c-181.87-215.572-2.298-299.832 317.045-283.216l146.068 43.502c43.122 10.711 146.276 67.734 213.916 210.14 103.75 188.206-50.533 209.379-211.917 224.283-161.385 14.903-283.242 20.863-465.112-194.709z"/><path d="M271.166 447.406C99.57 233.223 278.496 156.15 591.368 180.754l141.96 46.121c41.977 11.545 141.389 69.66 203.218 209.756 95.804 185.535-56.286 202.008-215.145 212.204-158.859 10.196-278.64 12.754-450.235-201.429z"/><path d="M272.828 436.154c-161.482-212.414 16.503-282.47 322.635-250.299l137.784 48.523c40.809 12.318 136.471 71.353 192.644 208.956 88.049 182.601-61.675 194.557-217.836 200.242-156.162 5.684-273.746 4.992-435.227-207.422z"/><path d="M275.545 425.176C124.002 214.901 300.761 151.68 599.901 190.994l133.549 50.709c39.621 13.027 131.531 72.815 182.21 207.748 80.49 179.417-66.695 187.043-219.998 188.416-153.302 1.373-268.573-2.415-420.117-212.691z"/><path d="M279.306 414.509c-141.798-207.78 33.457-264.355 325.373-218.326l129.264 52.68c38.414 13.674 126.58 74.047 171.933 206.144C979.025 631 834.531 634.486 684.243 631.751c-150.289-2.735-263.14-9.463-404.937-217.242z"/><path d="M284.094 404.188c-132.258-204.939 41.223-255.065 325.702-202.752l124.938 54.436c37.192 14.259 121.626 75.052 161.831 204.154 66.028 172.341-75.624 171.882-222.753 165.246-147.129-6.637-257.459-16.146-389.718-221.084z"/><path d="M289.895 394.248c-122.941-201.765 48.506-245.647 325.352-187.485l120.582 55.979c35.957 14.782 116.68 75.834 151.918 201.792 59.141 168.471-79.528 164.265-223.362 153.937-143.834-10.328-251.548-22.458-374.49-224.223z"/><path d="M296.692 384.724c-113.86-198.272 55.3-236.123 324.338-172.546l116.203 57.31c34.712 15.242 111.751 76.396 142.213 199.068 52.493 164.398-83.06 156.644-223.472 142.836-140.411-13.808-245.422-28.396-359.282-226.668z"/><path d="M304.465 375.649c-105.029-194.472 61.603-226.511 322.676-157.957l111.81 58.431c33.46 15.642 106.85 76.74 132.73 195.997 46.096 160.13-86.217 149.032-223.089 131.958-136.872-17.073-239.099-33.956-344.127-228.429z"/><path d="M313.194 367.056c-96.459-190.381 67.412-216.834 320.38-143.74l107.415 59.345c32.203 15.98 101.984 76.872 123.484 192.591 39.956 155.682-89.003 141.444-222.226 121.321-133.223-20.122-232.594-39.137-329.053-229.517z"/><path d="M322.859 358.974c-88.165-186.01 72.721-207.11 317.466-129.912l103.025 60.053c30.945 16.26 97.164 76.796 114.489 188.864 34.082 151.067-91.415 133.896-220.891 110.941-129.476-22.954-225.925-43.935-314.089-229.946z"/><path d="M333.435 351.435c-80.158-181.376 77.532-197.36 313.954-116.495l98.649 60.56c29.686 16.479 92.399 76.515 105.759 184.83 28.481 146.295-93.458 126.4-219.097 100.832-125.639-25.569-219.106-48.35-299.265-229.727z"/><path d="M344.901 344.468c-72.45-176.494 81.841-187.606 309.859-103.506l94.296 60.868c28.431 16.639 87.697 76.034 97.309 180.502 23.158 141.382-95.134 118.972-216.857 91.009-121.722-27.963-212.157-52.379-284.607-228.873z"/><path d="M357.23 338.1c-65.052-171.377 85.649-177.864 305.201-90.963l89.975 60.98c27.182 16.742 83.068 75.36 89.15 175.898 18.122 136.339-96.445 111.624-214.181 81.486C509.64 535.363 422.282 509.477 357.23 338.1z"/><path d="M370.396 332.359c-57.974-166.042 88.956-168.158 300-78.883l85.694 60.901c25.942 16.787 78.519 74.496 81.295 171.031 13.378 131.178-97.395 104.369-211.083 72.276C512.615 525.591 428.37 498.4 370.396 332.359z"/><path d="M384.372 327.269c-51.225-160.503 91.764-158.504 294.275-67.281l81.462 60.634c24.712 16.778 74.06 73.45 73.756 165.918 8.931 125.914-97.988 97.222-207.577 63.393-109.589-33.83-190.69-62.161-241.916-222.664z"/><path d="M399.13 322.855c-44.816-154.778 94.075-148.924 288.048-56.172l77.287 60.184c23.496 16.713 69.698 72.225 66.543 160.573 4.785 120.561-98.228 90.195-203.677 54.848-105.449-35.347-183.385-64.656-228.201-219.433z"/><path d="M414.64 319.14c-38.755-148.881 95.891-139.436 281.34-45.571l73.178 59.556c22.295 16.595 65.441 70.83 59.666 155.013.946 115.13-98.12 83.302-199.398 46.654-101.277-36.648-176.032-66.771-214.786-215.652z"/><path d="M430.87 316.146c-33.047-142.83 97.218-130.059 274.174-35.491l69.142 58.754c21.113 16.425 61.298 69.27 53.138 149.254-2.585 109.637-97.672 76.554-194.756 38.822-97.084-37.733-168.65-68.51-201.698-211.339z"/><path d="M447.791 313.893c-27.703-136.64 98.058-120.811 266.572-25.943l65.187 57.783c19.95 16.204 57.274 67.552 46.965 143.314-5.804 104.092-96.887 69.964-189.766 31.36-92.878-38.604-161.255-69.874-188.958-206.514z"/><path d="M465.369 312.401c-22.728-130.329 98.418-111.712 258.558-16.94l61.321 56.649c18.811 15.934 53.378 65.683 41.156 137.208-8.707 98.511-95.774 63.543-184.443 24.28-88.67-39.262-153.864-70.869-176.592-201.197z"/><path d="M483.572 311.686c-18.128-123.911 98.303-102.778 250.154-8.49l57.551 55.357c17.697 15.617 49.617 63.67 35.721 130.954-11.293 92.907-94.339 57.303-178.807 17.591-84.468-39.712-146.491-71.501-164.619-195.412z"/><path d="M502.364 311.766c-13.908-117.405 97.721-94.028 241.388-.605l53.884 53.914c16.61 15.253 45.997 61.52 30.664 124.569-13.56 87.293-92.59 51.254-172.871 11.3-80.282-39.955-139.157-71.772-153.065-189.178z"/><path d="M521.713 312.656c-10.073-110.828 96.677-85.479 232.281 6.707l50.328 52.326c15.552 14.845 42.524 59.241 25.994 118.07-15.509 81.682-90.536 45.409-166.657 5.415-76.121-39.994-131.873-71.69-141.946-182.518z"/><path d="M541.581 314.368c-6.627-104.196 95.182-77.147 222.86 13.441l46.889 50.598c14.525 14.394 39.205 56.839 21.715 111.474-17.137 76.087-88.183 39.776-160.178-.057-71.995-39.833-124.659-71.26-131.286-175.456z"/><path d="M561.933 316.915c-3.572-97.525 93.244-69.048 213.151 19.589l43.572 48.737c13.533 13.902 36.046 54.324 17.834 104.799-18.445 70.523-85.542 34.366-153.455-5.109-67.913-39.476-117.53-70.491-121.102-168.016z"/></g><defs><filter id="a" x="170.253" y="82.938" width="1074.46" height="668.591" filterUnits="userSpaceOnUse" color-interpolation-filters="sRGB"><feFlood flood-opacity="0" result="BackgroundImageFix"/><feColorMatrix in="SourceAlpha" values="0 0 0 0 0 0 0 0 0 0 0 0 0 0 0 0 0 0 127 0" result="hardAlpha"/><feOffset dy="4"/><feGaussianBlur stdDeviation="2"/><feComposite in2="hardAlpha" operator="out"/><feColorMatrix values="0 0 0 0 0 0 0 0 0 0 0 0 0 0 0 0 0 0 0.25 0"/><feBlend in2="BackgroundImageFix" result="effect1_dropShadow_2501_133"/><feBlend in="SourceGraphic" in2="effect1_dropShadow_2501_133" result="shape"/></filter></defs></svg>